HIERARCHY
ROOT Hips
{
	OFFSET 0.000000 0.000000 0.000000
	CHANNELS 6 Xposition Yposition Zposition Zrotation Yrotation Xrotation 
	JOINT LHipJoint
	{
		OFFSET 0.000000 0.000000 0.000000
		CHANNELS 3 Zrotation Yrotation Xrotation
		JOINT LeftUpLeg
		{
			OFFSET 1.363060 -1.794630 0.839290
			CHANNELS 3 Zrotation Yrotation Xrotation
			JOINT LeftLeg
			{
				OFFSET 2.448110 -6.726130 0.000000
				CHANNELS 3 Zrotation Yrotation Xrotation
				JOINT LeftFoot
				{
					OFFSET 2.562200 -7.039590 0.000000
					CHANNELS 3 Zrotation Yrotation Xrotation
					JOINT LeftToeBase
					{
						OFFSET 0.157640 -0.433110 2.322550
						CHANNELS 3 Zrotation Yrotation Xrotation
						End Site
						{
							OFFSET 0.000000 0.000000 0.000000
						}
					}
				}
			}
		}
	}
	JOINT RHipJoint
	{
		OFFSET 0.000000 0.000000 0.000000
		CHANNELS 3 Zrotation Yrotation Xrotation
		JOINT RightUpLeg
		{
			OFFSET -1.305520 -1.794630 0.839290
			CHANNELS 3 Zrotation Yrotation Xrotation
			JOINT RightLeg
			{
				OFFSET -2.542530 -6.985550 0.000000
				CHANNELS 3 Zrotation Yrotation Xrotation
				JOINT RightFoot
				{
					OFFSET -2.568260 -7.056230 0.000000
					CHANNELS 3 Zrotation Yrotation Xrotation
					JOINT RightToeBase
					{
						OFFSET -0.164730 -0.452590 2.363150
						CHANNELS 3 Zrotation Yrotation Xrotation
						End Site
						{
							OFFSET 0.000000 0.000000 0.000000
						}
					}
				}
			}
		}
	}
	JOINT LowerBack
	{
		OFFSET 0.000000 0.000000 0.000000
		CHANNELS 3 Zrotation Yrotation Xrotation
		JOINT Spine
		{
			OFFSET 0.028270 2.035590 -0.193380
			CHANNELS 3 Zrotation Yrotation Xrotation
			JOINT Spine1
			{
				OFFSET 0.056720 2.048850 -0.042750
				CHANNELS 3 Zrotation Yrotation Xrotation
				JOINT Neck
				{
					OFFSET 0.000000 0.000000 0.000000
					CHANNELS 3 Zrotation Yrotation Xrotation
					JOINT Neck1
					{
						OFFSET -0.054170 1.746240 0.172020
						CHANNELS 3 Zrotation Yrotation Xrotation
						JOINT Head
						{
							OFFSET 0.104070 1.761360 -0.123970
							CHANNELS 3 Zrotation Yrotation Xrotation
							End Site
							{
								OFFSET 0.000000 0.000000 0.000000
							}
						}
					}
				}
				JOINT LeftShoulder
				{
					OFFSET 0.000000 0.000000 0.000000
					CHANNELS 3 Zrotation Yrotation Xrotation
					JOINT LeftArm
					{
						OFFSET 3.362410 1.200890 -0.311210
						CHANNELS 3 Zrotation Yrotation Xrotation
						JOINT LeftForeArm
						{
							OFFSET 4.983000 -0.000000 -0.000000
							CHANNELS 3 Zrotation Yrotation Xrotation
							JOINT LeftHand
							{
								OFFSET 3.483560 -0.000000 -0.000000
								CHANNELS 3 Zrotation Yrotation Xrotation
								JOINT LeftFingerBase
								{
									OFFSET 0.000000 0.000000 0.000000
									CHANNELS 3 Zrotation Yrotation Xrotation
									JOINT LeftHandIndex1
									{
										OFFSET 0.715260 -0.000000 -0.000000
										CHANNELS 3 Zrotation Yrotation Xrotation
										End Site
										{
											OFFSET 0.000000 0.000000 0.000000
										}
									}
								}
								JOINT LThumb
								{
									OFFSET 0.000000 0.000000 0.000000
									CHANNELS 3 Zrotation Yrotation Xrotation
									End Site
									{
										OFFSET 0.000000 0.000000 0.000000
									}
								}
							}
						}
					}
				}
				JOINT RightShoulder
				{
					OFFSET 0.000000 0.000000 0.000000
					CHANNELS 3 Zrotation Yrotation Xrotation
					JOINT RightArm
					{
						OFFSET -3.136600 1.374050 -0.404650
						CHANNELS 3 Zrotation Yrotation Xrotation
						JOINT RightForeArm
						{
							OFFSET -5.241900 -0.000000 -0.000000
							CHANNELS 3 Zrotation Yrotation Xrotation
							JOINT RightHand
							{
								OFFSET -3.444170 -0.000000 -0.000000
								CHANNELS 3 Zrotation Yrotation Xrotation
								JOINT RightFingerBase
								{
									OFFSET 0.000000 0.000000 0.000000
									CHANNELS 3 Zrotation Yrotation Xrotation
									JOINT RightHandIndex1
									{
										OFFSET -0.622530 -0.000000 -0.000000
										CHANNELS 3 Zrotation Yrotation Xrotation
										End Site
										{
											OFFSET 0.000000 0.000000 0.000000
										}
									}
								}
								JOINT RThumb
								{
									OFFSET 0.000000 0.000000 0.000000
									CHANNELS 3 Zrotation Yrotation Xrotation
									End Site
									{
										OFFSET 0.000000 0.000000 0.000000
									}
								}
							}
						}
					}
				}
			}
		}
	}
}
MOTION
Frames: 11
Frame Time: 0.008333
6.085780 16.376787 17.302237 -171.745759 3.225035 -136.499367 24.598127 15.740040 9.735835 -6.963027 -38.061168 -69.441716 7.534258 13.402145 39.196354 7.832158 2.773060 -49.423425 7.087800 -15.405400 -49.205800 -26.079229 -14.051167 12.876521 -11.031262 40.461254 -62.956220 -6.984619 -14.895900 46.631713 -5.003990 -0.231389 -51.471985 -4.043400 12.217900 -36.507100 -2.648959 -5.006087 -23.483784 18.244425 -8.147295 32.777739 -4.806382 -1.450622 2.303530 -12.622811 0.943998 -15.579968 5.487043 2.812770 26.556037 1.613200 2.520800 5.901000 19.693583 2.437232 0.168777 -91.708950 -25.500128 26.804605 38.901849 -47.184134 -13.255266 -0.035415 -0.164054 -2.793000 25.252711 -13.337797 -6.138500 -7.125000 0.000000 0.000000 -1.400900 15.490300 0.976200 -16.423047 -2.180194 -0.396689 100.351422 -2.318779 -0.098909 -50.602223 56.604087 -20.969846 0.722016 -3.182955 -15.212300 -12.283796 -55.232236 9.659200 7.125000 0.000000 0.000000 62.604500 -75.444200 -48.600900 
6.008014 16.371526 17.293150 -171.404498 3.660477 -135.432141 24.051008 15.756392 9.641531 -6.239634 -37.305806 -70.690901 7.501773 13.483410 39.351067 7.805733 2.658853 -49.597032 6.773200 -15.137900 -48.011400 -25.328771 -14.039903 13.458303 -13.442221 39.026031 -65.572248 -6.611869 -15.039576 46.225717 -4.865249 0.030869 -50.552558 -4.079700 12.265700 -36.678600 -2.812624 -4.892401 -24.392855 18.604411 -7.895830 32.295469 -4.872233 -1.322351 2.657027 -12.569170 0.994629 -14.995142 5.338173 2.783065 26.139105 1.556600 2.473500 5.794300 19.577705 2.255131 0.133159 -92.055814 -25.191722 27.520520 38.682757 -46.866524 -13.111452 -0.050261 -0.172178 -2.869760 24.899607 -13.710991 -6.208700 -7.125000 0.000000 0.000000 -1.657200 15.133400 1.167600 -16.428564 -2.119995 -0.356325 100.565960 -2.554476 -0.560498 -50.228337 56.383571 -20.681835 0.696871 -3.201584 -15.009400 -12.638117 -55.366162 9.945400 7.125000 0.000000 0.000000 62.874700 -75.617900 -49.026100 
5.930151 16.372291 17.275263 -171.057870 3.826930 -134.892803 23.879771 15.793205 9.586944 -5.964379 -37.015123 -71.143661 7.464873 13.458782 39.290341 7.705078 2.245850 -50.000619 6.035300 -14.462400 -45.123000 -25.023267 -14.026309 13.763247 -14.410001 38.301537 -66.631075 -6.379009 -15.060211 45.723456 -4.746383 0.160572 -49.957098 -3.952900 12.097500 -36.077600 -2.858077 -4.855674 -24.645049 18.957449 -7.818514 32.018710 -4.919340 -1.275740 2.460230 -12.091691 0.897387 -15.320385 4.628996 2.853016 26.960102 1.443300 2.489300 5.919700 19.448210 2.262905 0.146317 -92.366054 -24.745830 28.397882 38.369046 -46.514005 -12.946379 -0.053345 -0.181763 -3.311285 24.621820 -13.897428 -6.210100 -7.125000 0.000000 0.000000 -1.855700 14.973900 1.313900 -16.498808 -1.987966 -0.268961 100.743542 -2.858361 -0.912515 -49.668717 56.120095 -20.293874 0.651647 -3.230077 -14.687453 -13.213205 -55.310862 10.371500 7.125000 0.000000 0.000000 62.333400 -75.802800 -48.738300 
5.853437 16.387787 17.240254 -171.174896 3.640506 -135.566951 24.393984 15.801407 9.586437 -7.522584 -37.736577 -69.571050 7.460740 13.268107 38.732089 7.562437 1.841245 -50.028602 5.999100 -14.427400 -44.977900 -25.653004 -14.091628 13.750891 -13.224734 38.796344 -64.988404 -6.391895 -14.833232 45.100423 -4.765128 -0.160388 -49.942352 -3.893600 12.017500 -35.793800 -2.701501 -4.860980 -24.503566 18.261196 -7.941328 32.582929 -4.698354 -1.353799 2.663710 -11.908317 0.657941 -15.854748 4.715366 2.614928 27.457811 1.431400 2.406600 6.067100 19.574300 2.354176 0.144809 -92.556312 -24.806986 28.973241 37.981173 -46.218809 -12.756266 -0.048103 -0.161941 -3.808162 24.070882 -13.569009 -5.922000 -7.125000 0.000000 0.000000 -2.217000 15.368800 1.551300 -16.448973 -1.944377 -0.263867 101.009831 -2.713858 -1.124396 -49.019050 55.859315 -19.887979 0.580429 -3.276988 -14.200152 -14.264795 -55.737004 11.234600 7.125000 0.000000 0.000000 63.379000 -76.331100 -50.231700 
5.774523 16.400318 17.216532 -171.332054 3.673758 -135.730542 24.538612 15.760482 9.529809 -8.636855 -38.037073 -68.778094 7.456208 13.184340 38.342912 7.556736 1.886113 -49.875657 6.449100 -14.849900 -46.758600 -25.714656 -14.107703 13.967019 -13.498849 38.442871 -64.871291 -6.270856 -14.851997 44.775771 -4.856130 -0.613175 -49.700253 -3.938400 12.078000 -36.008300 -2.709081 -4.789113 -24.599848 17.897988 -7.857205 32.714083 -4.701902 -1.302236 3.051949 -12.579784 0.846982 -14.846897 6.011381 2.384822 25.566085 1.577000 2.318300 5.737400 19.700874 2.201412 0.037868 -92.782962 -24.864659 29.530532 37.659672 -45.914142 -12.577146 -0.036130 -0.145185 -4.059533 23.753027 -13.237447 -5.698800 -7.125000 0.000000 0.000000 -2.425500 15.743200 1.677900 -16.306745 -2.063134 -0.339200 101.297867 -2.752997 -1.413129 -48.518313 55.585640 -19.541122 0.496358 -3.314343 -13.694460 -15.623555 -56.252675 12.368100 7.125000 0.000000 0.000000 64.874800 -76.999600 -52.291000 
5.700869 16.410170 17.201131 -171.493896 3.934679 -135.596243 24.424018 15.688329 9.453245 -9.243032 -38.090562 -68.507167 7.441079 13.153385 38.135141 7.518939 1.780322 -49.945487 6.504900 -14.900400 -46.975900 -25.433435 -14.091762 14.270030 -14.720506 37.678731 -65.779831 -6.099464 -15.047032 44.803804 -4.981093 -1.085507 -49.194203 -3.839600 11.943800 -35.533500 -2.856194 -4.700377 -24.829770 17.386902 -7.720967 32.972676 -4.571165 -1.298377 2.890621 -12.626115 0.417777 -15.656346 6.806661 1.790631 26.973746 1.669600 2.195500 5.988500 19.767867 2.260932 0.059599 -93.050140 -24.636413 30.126814 37.336970 -45.614268 -12.407378 -0.026661 -0.151710 -4.235573 23.714618 -13.118666 -5.633000 -7.125000 0.000000 0.000000 -2.450700 15.883900 1.687900 -16.193097 -1.965398 -0.280920 101.589000 -2.859298 -1.670061 -47.858691 55.282508 -19.114121 0.452234 -3.326344 -13.159059 -15.699523 -55.697185 12.328700 7.125000 0.000000 0.000000 62.536500 -76.846900 -50.011300 
5.627694 16.415527 17.184201 -171.564872 4.325464 -135.410870 24.267216 15.603943 9.388094 -9.614968 -38.092737 -68.298154 7.414038 13.116452 37.988839 7.387132 1.327541 -50.313848 5.713200 -14.144500 -43.819500 -25.080872 -14.056910 14.511763 -16.046094 36.896206 -66.916687 -5.966287 -15.310979 45.073802 -5.084804 -1.506259 -48.495117 -3.629400 11.650200 -34.505400 -2.939387 -4.635018 -25.337672 16.943339 -7.554380 33.040950 -4.452099 -1.261973 3.378502 -12.551962 0.580371 -15.111398 6.605386 1.942946 26.000102 1.618400 2.191000 5.838300 19.795791 2.140193 0.000428 -93.280167 -24.432983 30.450738 37.104144 -45.324850 -12.247738 -0.008465 -0.153143 -4.370101 23.808093 -13.071811 -5.632500 -7.125000 0.000000 0.000000 -2.395600 15.927800 1.647700 -16.144751 -1.973230 -0.306045 101.819007 -2.786989 -1.776413 -47.169105 54.909706 -18.649138 0.429229 -3.321873 -12.476898 -15.064584 -54.620444 11.659200 7.125000 0.000000 0.000000 58.624200 -76.202200 -45.869600 
5.555667 16.425666 17.168705 -171.520228 4.538533 -135.353871 24.300407 15.564981 9.328656 -10.025350 -38.249879 -67.934220 7.390225 13.054945 37.771218 7.327329 1.057868 -50.643948 5.019900 -13.406200 -40.908800 -24.789107 -13.989073 14.552866 -16.709616 36.387586 -67.526942 -5.945967 -15.571012 45.494097 -5.175880 -1.950564 -47.920927 -3.414100 11.336900 -33.424800 -3.117744 -4.773897 -25.006387 17.298478 -7.650124 32.667586 -4.584998 -1.304689 2.922696 -12.596579 0.724742 -14.671070 6.019785 2.195436 26.112499 1.573600 2.257500 5.760800 19.682533 2.034803 -0.033937 -93.631787 -23.430758 30.728467 36.959328 -45.043196 -12.151049 0.004684 -0.150073 -4.443785 23.749067 -12.995204 -5.582400 -7.125000 0.000000 0.000000 -2.441400 16.014500 1.674600 -16.187318 -1.902166 -0.245468 101.767027 -3.311899 -1.555756 -46.635227 54.558499 -18.267884 0.391982 -3.325993 -11.640736 -14.619657 -54.116566 11.233900 7.125000 0.000000 0.000000 57.024800 -75.818500 -44.087100 
5.486318 16.440588 17.154644 -171.508544 4.713016 -135.471544 24.372360 15.512652 9.374171 -10.558349 -38.478754 -67.418369 7.376974 12.982782 37.303157 7.477276 1.520883 -50.554066 5.277800 -13.690000 -42.009400 -24.687482 -13.969857 14.461328 -16.832543 36.206013 -67.794329 -6.090295 -15.828923 46.121457 -5.439508 -2.912908 -47.163917 -3.186500 10.991000 -32.249400 -3.154076 -4.656905 -24.661172 16.953852 -7.517966 33.137183 -4.375284 -1.266517 2.318360 -11.749391 0.369607 -16.096246 4.939909 2.192216 27.434901 1.395700 2.223500 6.071300 19.623164 2.303324 -0.023816 -93.971223 -23.136605 31.378109 36.600093 -44.761247 -11.991415 -0.005727 -0.156099 -4.472077 23.399020 -12.904791 -5.453100 -7.125000 0.000000 0.000000 -2.670300 16.155000 1.823900 -16.251625 -1.784809 -0.194936 101.971257 -3.336555 -1.769103 -45.938735 54.286201 -17.850724 0.374777 -3.339268 -10.848501 -13.785637 -53.650904 10.522291 7.125000 0.000000 0.000000 55.876900 -75.288400 -42.566900 
5.417925 16.454745 17.141730 -171.696960 5.048895 -135.511437 24.349731 15.400823 9.380025 -11.353431 -38.643322 -66.842613 7.359518 12.916873 36.754082 7.633283 2.093275 -50.230225 5.893600 -14.324400 -44.553100 -24.415692 -13.930547 14.484214 -17.483730 35.570562 -68.525338 -6.163864 -16.235209 46.882938 -5.783395 -4.184649 -46.069522 -2.807900 10.377300 -30.207500 -3.325925 -4.591789 -24.889538 16.490211 -7.354213 33.442129 -4.214516 -1.215536 2.690110 -12.033565 0.347528 -16.030616 5.510830 2.033075 26.582208 1.466900 2.148800 5.987800 19.710785 2.266278 -0.086548 -94.299605 -23.097123 31.614529 36.276331 -44.466815 -11.795789 0.003899 -0.158470 -4.376716 23.383080 -12.804660 -5.403600 -7.125000 0.000000 0.000000 -2.682600 16.268400 1.825700 -16.186856 -1.837440 -0.245697 102.128100 -3.064087 -1.804150 -45.158868 53.870120 -17.342271 0.349347 -3.352162 -10.254548 -13.382978 -53.015214 10.116900 7.125000 0.000000 0.000000 53.996800 -74.825300 -40.510700 
5.350394 16.467849 17.125565 -172.003912 5.369053 -135.618142 24.368534 15.267657 9.334316 -12.264131 -38.956731 -66.101634 7.321524 12.813871 36.241245 7.623932 2.093348 -50.189209 5.719200 -14.150600 -43.844200 -24.116456 -13.859274 14.528864 -18.113135 34.789574 -69.150563 -6.201140 -16.679143 47.682825 -6.053038 -5.246096 -45.226340 -2.354600 9.568700 -27.590900 -3.545010 -4.614861 -24.972388 16.040455 -7.281720 33.444497 -4.120890 -1.252746 2.667292 -12.057246 0.346493 -15.746389 5.770101 1.912800 26.822736 1.491900 2.136100 5.972100 19.753709 2.161534 -0.105136 -94.580014 -22.461567 31.753921 36.082704 -44.173262 -11.659971 0.028303 -0.150785 -4.245568 23.463486 -12.433635 -5.265700 -7.125000 0.000000 0.000000 -2.625700 16.653600 1.765000 -16.091229 -1.773998 -0.216454 102.245077 -3.302029 -1.692058 -44.485527 53.434477 -16.883416 0.311760 -3.372649 -9.707741 -13.365293 -52.848687 10.069800 7.125000 0.000000 0.000000 53.431500 -74.724600 -39.937000 
